<?xml version="1.0" encoding="utf-8"?>
<!-- Generator: Adobe Illustrator 24.3.0, SVG Export Plug-In . SVG Version: 6.00 Build 0)  -->
<svg version="1.1" id="Ebene_1" xmlns="http://www.w3.org/2000/svg" xmlns:xlink="http://www.w3.org/1999/xlink" x="0px" y="0px"
	 width="300px" height="300px" viewBox="0 0 300 300" style="enable-background:new 0 0 300 300;" xml:space="preserve">
<style type="text/css">
	.st0{fill:none;stroke:#000000;stroke-width:4;stroke-linecap:round;stroke-miterlimit:10;}
</style>
<g>
	<circle cx="106.8" cy="63.7" r="22"/>
	<path d="M221.1,204.3c-7.6-19.6-40.3-48.6-61.5-53c-2.8-0.5-4.4,1.2-6.7,2.9c-7.5,1.4-13,7.8-15.2,15.2c-1.3,5.3-4.9,24.7-6.2,29
		c-0.9,2.1-1.7,5.5-2.6,7.6c-1.2,3.2-3.8,8.2-7,13.2c-12.4,18.6-18.2,24.4-41,47.8l-4.7,4.7v0.3c0,0,0.3,0,0.3,0
		c2.4-1,4.6-2.2,7.3-3.5c39.2-24.3,56-35.4,70.6-66.8c2.5-6.1,5.6-15.5,6.7-20.5c0.5-1.6,0.8-2.3,1.2-2.6c5.1,9,21.2,15.4,32.5,23.4
		c3.2,2.6,9.5,6.5,11.7,10.5c1.5,2.1,5,8.8,5,9.4c6.5,15.8,9.4,33.7,12.6,50.7l0.3,0.3c0,0,0.6-1.5,0.6-1.5
		C230.2,260.9,227.4,217.1,221.1,204.3z"/>
	<path d="M82.8,150.8c0.2,1.5,0.6,2.9,1.2,4.3c0,0,0,0,0,0c1.4,3.7,7.5,6,12.3,4.7c1.5,0,4.1-2.3,6.4-5.6
		c10-14.7,25.3-35.9,23.7-51.3c-1.4-7.8-10.6-8.6-16.4-4.4c-7,6.1-8.7,8.3-15.2,19c-2,3.4-3,6-3.8,5.9c-0.9-1.6-1.2-2.7-2.1-5.3
		c-1.9-6.1-4.5-11.9-6.4-17.6l-1.2-2.6l0,0c0.3,0,0.6,0,0.9,0c5.3,0,9.7-4.3,9.7-9.7c0-5.3-4.3-9.7-9.7-9.7c-5.3,0-9.7,4.3-9.7,9.7
		c0,2.7,1.1,5.2,2.9,6.9C77,108.2,80.7,135.2,82.8,150.8z"/>
	<path d="M139.6,85.9c10.4,0.5,13-3,22.6-13.2c6-6.3,15-19.7,20.2-27.2c7.3-9.9,20.7-29.1,26.4-37.8V7.4c0,0-0.9,0.6-0.9,0.6
		c-6.4,4.4-35,28.8-45.4,38.7c-8.5,8.1-32.9,26.8-25.2,37.8C138.2,85.6,138.4,85.9,139.6,85.9z"/>
</g>
<ellipse class="st0" cx="150" cy="263" rx="140" ry="20"/>
</svg>
